<mxfile host="Electron" modified="2023-09-09T18:59:18.452Z" agent="Mozilla/5.0 (X11; Linux x86_64) AppleWebKit/537.36 (KHTML, like Gecko) draw.io/21.6.8 Chrome/114.0.5735.289 Electron/25.5.0 Safari/537.36" etag="sduDF4h3h9WYfyVS3cR-" version="21.6.8" type="device">
  <diagram name="Page-1" id="TkmSOEO_PxTDCCX6g1YR">
    <mxGraphModel dx="393" dy="1875" grid="0" gridSize="10" guides="1" tooltips="1" connect="1" arrows="1" fold="1" page="1" pageScale="1" pageWidth="850" pageHeight="1100" math="1" shadow="0">
      <root>
        <mxCell id="0" />
        <mxCell id="1" parent="0" />
        <mxCell id="cxl1a4Y_rBApcbAP0tV--19" value="" style="rounded=0;whiteSpace=wrap;html=1;fillColor=default;movable=0;resizable=0;rotatable=0;deletable=0;editable=0;locked=1;connectable=0;" parent="1" vertex="1">
          <mxGeometry x="2200" y="510" width="320" height="160" as="geometry" />
        </mxCell>
        <mxCell id="tppiOecXYwWX3qvOAqBn-8" style="edgeStyle=orthogonalEdgeStyle;rounded=0;orthogonalLoop=1;jettySize=auto;html=1;entryX=0;entryY=0.5;entryDx=0;entryDy=0;" edge="1" parent="1" source="tppiOecXYwWX3qvOAqBn-1" target="tppiOecXYwWX3qvOAqBn-4">
          <mxGeometry relative="1" as="geometry" />
        </mxCell>
        <mxCell id="tppiOecXYwWX3qvOAqBn-9" style="edgeStyle=orthogonalEdgeStyle;rounded=0;orthogonalLoop=1;jettySize=auto;html=1;entryX=0.5;entryY=1;entryDx=0;entryDy=0;" edge="1" parent="1" source="tppiOecXYwWX3qvOAqBn-1" target="tppiOecXYwWX3qvOAqBn-3">
          <mxGeometry relative="1" as="geometry" />
        </mxCell>
        <mxCell id="tppiOecXYwWX3qvOAqBn-1" value="Instance" style="rounded=1;whiteSpace=wrap;html=1;" vertex="1" parent="1">
          <mxGeometry x="1107" y="-694" width="120" height="60" as="geometry" />
        </mxCell>
        <mxCell id="tppiOecXYwWX3qvOAqBn-7" style="edgeStyle=orthogonalEdgeStyle;rounded=0;orthogonalLoop=1;jettySize=auto;html=1;entryX=0;entryY=0.5;entryDx=0;entryDy=0;" edge="1" parent="1" source="tppiOecXYwWX3qvOAqBn-2" target="tppiOecXYwWX3qvOAqBn-1">
          <mxGeometry relative="1" as="geometry" />
        </mxCell>
        <mxCell id="tppiOecXYwWX3qvOAqBn-2" value="PFN" style="rounded=1;whiteSpace=wrap;html=1;" vertex="1" parent="1">
          <mxGeometry x="926" y="-694" width="120" height="60" as="geometry" />
        </mxCell>
        <mxCell id="tppiOecXYwWX3qvOAqBn-6" style="edgeStyle=orthogonalEdgeStyle;rounded=0;orthogonalLoop=1;jettySize=auto;html=1;entryX=0;entryY=0.5;entryDx=0;entryDy=0;" edge="1" parent="1" source="tppiOecXYwWX3qvOAqBn-3" target="tppiOecXYwWX3qvOAqBn-5">
          <mxGeometry relative="1" as="geometry" />
        </mxCell>
        <mxCell id="tppiOecXYwWX3qvOAqBn-10" style="edgeStyle=orthogonalEdgeStyle;rounded=0;orthogonalLoop=1;jettySize=auto;html=1;entryX=0.25;entryY=0;entryDx=0;entryDy=0;" edge="1" parent="1" source="tppiOecXYwWX3qvOAqBn-3" target="tppiOecXYwWX3qvOAqBn-1">
          <mxGeometry relative="1" as="geometry">
            <Array as="points">
              <mxPoint x="1137" y="-764" />
              <mxPoint x="1137" y="-764" />
            </Array>
          </mxGeometry>
        </mxCell>
        <mxCell id="tppiOecXYwWX3qvOAqBn-3" value="Flow" style="rounded=1;whiteSpace=wrap;html=1;" vertex="1" parent="1">
          <mxGeometry x="1107" y="-843" width="120" height="60" as="geometry" />
        </mxCell>
        <mxCell id="tppiOecXYwWX3qvOAqBn-11" style="edgeStyle=orthogonalEdgeStyle;rounded=0;orthogonalLoop=1;jettySize=auto;html=1;entryX=0.5;entryY=1;entryDx=0;entryDy=0;" edge="1" parent="1" source="tppiOecXYwWX3qvOAqBn-4" target="tppiOecXYwWX3qvOAqBn-5">
          <mxGeometry relative="1" as="geometry" />
        </mxCell>
        <mxCell id="tppiOecXYwWX3qvOAqBn-4" value="Background Map" style="rounded=1;whiteSpace=wrap;html=1;" vertex="1" parent="1">
          <mxGeometry x="1325" y="-694" width="120" height="60" as="geometry" />
        </mxCell>
        <mxCell id="tppiOecXYwWX3qvOAqBn-5" value="Odometry" style="rounded=1;whiteSpace=wrap;html=1;" vertex="1" parent="1">
          <mxGeometry x="1325" y="-843" width="120" height="60" as="geometry" />
        </mxCell>
        <mxCell id="tppiOecXYwWX3qvOAqBn-13" style="edgeStyle=orthogonalEdgeStyle;rounded=0;orthogonalLoop=1;jettySize=auto;html=1;" edge="1" parent="1" source="tppiOecXYwWX3qvOAqBn-12" target="tppiOecXYwWX3qvOAqBn-5">
          <mxGeometry relative="1" as="geometry" />
        </mxCell>
        <mxCell id="tppiOecXYwWX3qvOAqBn-12" value="Constant Velocity model as in KISS-ICP" style="rounded=1;whiteSpace=wrap;html=1;" vertex="1" parent="1">
          <mxGeometry x="1325" y="-992" width="120" height="60" as="geometry" />
        </mxCell>
      </root>
    </mxGraphModel>
  </diagram>
</mxfile>
